<svg xmlns="http://www.w3.org/2000/svg" id="Layer_1" viewBox="0 0 119.3 119.3" width="119.3" height="119.3"><style>.st0{fill:#fff}.st1,.st2{stroke:#0063b7;stroke-miterlimit:10}.st1{fill:#0063b7;stroke-width:3}.st2{stroke-width:2}.st2,.st3{fill:#0063b7}</style><circle cx="59.7" cy="59.7" r="59.7" class="st0"/><path d="M77.4 103.1H42c-13.6-.1-24.5-11-24.6-24.6V40.8c.1-13.6 11-24.5 24.6-24.6h35.4c13.6.1 24.5 11 24.6 24.6v37.7c-.1 13.6-11 24.5-24.6 24.6zm0-6.5c10-.1 18-8.1 18.1-18.1V40.8c-.1-10-8.1-18-18.1-18.1H42c-10 .1-18 8.1-18.1 18.1v37.7c.1 10 8.1 18 18.1 18.1h35.4z" class="st1"/><path d="M83.1 59.3c0 12.9-10.4 23.3-23.3 23.3S36.5 72.2 36.5 59.3 46.9 36 59.8 36s23.3 10.4 23.3 23.3zM59.7 44.1c-8.4-.1-15.3 6.8-15.4 15.2-.1 8.4 6.8 15.3 15.2 15.4 8.4.1 15.3-6.8 15.4-15.2v-.2c-.1-8.4-6.8-15.1-15.2-15.2z" class="st2"/><circle cx="83.5" cy="35.7" r="5.5" class="st3"/></svg>