<?xml version="1.0" encoding="utf-8"?>
<!-- Generator: Adobe Illustrator 21.1.0, SVG Export Plug-In . SVG Version: 6.00 Build 0)  -->
<svg version="1.1" id="Layer_1" xmlns="http://www.w3.org/2000/svg" xmlns:xlink="http://www.w3.org/1999/xlink" x="0px" y="0px"
	 viewBox="0 0 119.3 119.3" style="enable-background:new 0 0 119.3 119.3;" xml:space="preserve">
<style type="text/css">
	.st0{fill:#FFFFFF;}
	.st1{fill:#0063B7;stroke:#0063B7;stroke-width:3;stroke-miterlimit:10;}
	.st2{fill:#0063B7;stroke:#0063B7;stroke-width:2;stroke-miterlimit:10;}
	.st3{fill:#0063B7;}
</style>
<circle class="st0" cx="59.7" cy="59.7" r="59.7"/>
<path class="st1" d="M77.4,103.1H42c-13.6-0.1-24.5-11-24.6-24.6V40.8c0.1-13.6,11-24.5,24.6-24.6h35.4c13.6,0.1,24.5,11,24.6,24.6
	v37.7C101.9,92.1,91,103,77.4,103.1z M77.4,96.6c10-0.1,18-8.1,18.1-18.1V40.8c-0.1-10-8.1-18-18.1-18.1H42
	c-10,0.1-18,8.1-18.1,18.1v37.7c0.1,10,8.1,18,18.1,18.1H77.4z"/>
<path class="st2" d="M83.1,59.3c0,12.9-10.4,23.3-23.3,23.3S36.5,72.2,36.5,59.3S46.9,36,59.8,36S83.1,46.4,83.1,59.3L83.1,59.3z
	 M59.7,44.1c-8.4-0.1-15.3,6.8-15.4,15.2c-0.1,8.4,6.8,15.3,15.2,15.4c8.4,0.1,15.3-6.8,15.4-15.2c0-0.1,0-0.1,0-0.2
	C74.8,50.9,68.1,44.2,59.7,44.1z"/>
<circle class="st3" cx="83.5" cy="35.7" r="5.5"/>
</svg>
