<svg xmlns="http://www.w3.org/2000/svg" width="118.3" height="104.5" viewBox="0 0 118.3 104.5"><path fill="#fff" d="M82.7 41a94.1 94.1 0 0 0-44.8 18.7c-5.7 4.4-11.1 9.8-12 17.2a15 15 0 0 0 9 16c7.1 3.3 16.1 3.6 23.7 3.8a100.8 100.8 0 0 0 25.6-2.4c6.6-1.6 13.4-4.3 18.1-9.3s6.8-12.3 7.3-19.5 0-17.1-6.4-22.7-14.7-5-22.1-4.3c-4.8.4-4.8 8 0 7.5 7.1-.7 16.9-1.6 19.9 6.6 2.3 6 1.7 15.2-.5 21.2-5.1 14.8-27.2 15.6-40.1 15.5-7.1-.1-16.7.1-23.1-3.5-10.1-5.6-.1-16.4 5.6-20.7a88.4 88.4 0 0 1 41.8-16.9c4.8-.7 2.7-7.9-2-7.2zm-54.5-8.2c-7.4 0-15.7 3.8-18.8 10.9s4 13.6 10.9 14.6 14.1-1.7 17.2-8A13.2 13.2 0 0 0 33 33.6c-4-2.7-7.8 3.8-3.8 6.5 2.2 1.5 2.6 4.6 1.6 6.9s-5.2 4.2-8.3 4.1-8.3-2.5-4.7-6.4a13.7 13.7 0 0 1 10.5-4.3c4.8 0 4.8-7.5 0-7.5zm28.7-16.5c-7.5-2.3-14.9 5.5-13.1 13s10.9 10.6 17.7 8.3 12.7-12 7.9-19.1a11.6 11.6 0 0 0-9-5c-3.7-.1-6 1.6-7.9 4.6s3.9 7.8 6.5 3.8a5.1 5.1 0 0 1 .6-.9c1-1 0 0 0 0a3.9 3.9 0 0 1 3.6 1.7c2 3-1.3 6.9-4.2 7.8s-5.6.4-7.2-1.6 0-6.3 3-5.4c4.8 1.4 6.7-5.8 2.1-7.2zm39.9-5.7c-7.2-.6-14.8 3.8-17 10.8-2.7 8.6 5.4 12.8 12.9 12s13.6-5.7 13.6-13.1-5.1-12.8-11.9-12.5c-4.8.2-4.8 7.7 0 7.5 2.7-.1 4.5 2.5 4.4 5.1s-3.4 5.1-6.2 5.6a8.7 8.7 0 0 1-4.8-.2c-1.7-.8-1.1-2.1-.1-3.6a9.4 9.4 0 0 1 9-4c4.8.4 4.8-7.1 0-7.5z"/></svg>